<svg fill="#000000" xmlns="http://www.w3.org/2000/svg"  viewBox="0 0 48 48" width="48px" height="48px"><path d="M 24 4 C 12.954 4 4 12.954 4 24 C 4 35.046 12.954 44 24 44 C 35.046 44 44 35.046 44 24 C 44 12.954 35.046 4 24 4 z M 23.998047 13.003906 C 24.592047 13.003906 25.131094 13.353484 25.371094 13.896484 L 32.871094 30.886719 C 33.207094 31.645719 32.863469 32.531234 32.105469 32.865234 C 31.909469 32.952234 31.703953 32.992187 31.501953 32.992188 C 30.925953 32.992188 30.375906 32.658656 30.128906 32.097656 L 28.746094 28.966797 C 28.666094 28.979797 28.584 28.992187 28.5 28.992188 L 19.5 28.992188 C 19.416 28.992188 19.334906 28.980797 19.253906 28.966797 L 17.871094 32.097656 C 17.538094 32.855656 16.650531 33.198281 15.894531 32.863281 C 15.136531 32.529281 14.791953 31.644719 15.126953 30.886719 L 22.626953 13.896484 C 22.866953 13.353484 23.404047 13.003906 23.998047 13.003906 z M 24 18.21875 L 20.568359 25.992188 L 27.431641 25.992188 L 24 18.21875 z"/></svg>